# xmcd
#
# Track frame offsets:
#	150
#	13605
#	22598
#	38163
#	49672
#	65533
#	77150
#	90620
#	100849
#	120862
#	129627
#	140646
#	157164
#
# Disc length: 2348 seconds
#
# Revision: 1
# Processed by: cddbd v1.5.2PL0 Copyright (c) Steve Scherf et al.
# Submitted via: audiograbber 1.83.01
#
DISCID=9f092a0d
DTITLE=Eric Noden - The Original
DYEAR=2008
DGENRE=Blues
TTITLE0=Salt Rock Blues
TTITLE1=Blues Will Find You
TTITLE2=400 Miles From Home
TTITLE3=Turtle Creek
TTITLE4=Crooked Road Blues
TTITLE5=Big Dog Little Dog
TTITLE6=Weep And Moan
TTITLE7=Nothin's Blues
TTITLE8=October Blues
TTITLE9=34th Street Shuffle
TTITLE10=Gary Went To New Orleans
TTITLE11=Runnin' Round Blues
TTITLE12=Train Is Commin'
EXTD=
EXTT0=
EXTT1=
EXTT2=
EXTT3=
EXTT4=
EXTT5=
EXTT6=
EXTT7=
EXTT8=
EXTT9=
EXTT10=
EXTT11=
EXTT12=
PLAYORDER=
